<?xml version="1.0" encoding="utf-8"?>
<!-- Generator: Adobe Illustrator 19.0.1, SVG Export Plug-In . SVG Version: 6.00 Build 0)  -->
<svg version="1.1" id="Layer_1" xmlns="http://www.w3.org/2000/svg" xmlns:xlink="http://www.w3.org/1999/xlink" x="0px" y="0px"
	 viewBox="-430 39 399.3 406.3" style="enable-background:new -430 39 399.3 406.3;" xml:space="preserve">
<style type="text/css">
	.st0{fill:#91BFFF;}
	.st1{fill:#4285F4;}
	.st2{fill:#C4E1FF;}
	.st3{fill:#F5F5F5;}
	.st4{fill:#255FDB;}
</style>
<g>
	<path class="st0" d="M-170.3,185.6c-67.1-113.1-139.6-129-210.2-67.1v0c-27.6,33.5-44.2,76.6-44.2,123.7
		c5.3-81.3,102.5-136,194.3,3.5c79.4,121.8,178.2,88.4,192.5,23.2c1.2-8.7,1.8-17.6,1.8-26.7c0-2.9-0.1-5.8-0.2-8.6
		C-62.8,261.6-115.6,272-170.3,185.6z"/>
	<path class="st1" d="M-230.3,245.7c-91.9-139.6-189-84.8-194.3-3.5c0,29.1,6.3,56.7,17.7,81.4v-0.1
		c-12.4-56.5,47.7-98.9,114.8-10.6c79.5,104.2,178.4,91.9,224.4,35.3v0.9c15.5-23.6,26-50.8,30-80.2
		C-52.1,334.1-150.9,367.5-230.3,245.7z"/>
	<path class="st2" d="M-170.3,185.6c54.6,86.4,107.5,76,134.1,47.9c-0.7-15.9-3.3-31.3-7.5-45.9c-22.7,6.8-40.3,4.7-68.3-39.1
		c-40.7-62.8-99.4-110.9-179-91.1c-35.5,11.5-66.4,33-89.5,61v0C-309.8,56.7-237.4,72.6-170.3,185.6z"/>
	<path class="st3" d="M-112,148.5c28,43.8,45.6,45.9,68.3,39.1c-23.4-81-97.8-139.8-186.6-139.8c-21.2,0-41.6,3.4-60.7,9.6
		C-211.3,37.7-152.7,85.8-112,148.5z"/>
	<path class="st4" d="M-292.2,312.8c-67.1-88.3-127.2-45.9-114.8,10.6v0.1c30.7,66.8,98,112.9,176.7,112.9
		c68.2,0,127.9-34.7,162.5-87.4v-0.9C-113.7,404.7-212.7,417.1-292.2,312.8z"/>
</g>
</svg>
